Coordinates
version=1
nRows=54
nColumns=12
inDegrees=yes

Units are S.I. units (second, meters, Newtons, ...)
Angles are in degrees

endheader
time	SC_y	SC_z	SC_x	AC_y	AC_z	AC_x	GH_y	GH_z	GH_yy	EL_x	PS_y
       0.0              -19.71          5.961          59.89          33.51          3.251         -11.11         -79.15          68.71         -139.4          27.88          35.86
   0.03682              -19.72          5.963          59.89          33.51          3.251         -11.11         -79.15          68.71         -139.4          27.88          35.86
   0.07364              -19.72          5.965          59.89          33.52           3.25         -11.11         -79.15          68.72         -139.3          27.88          35.87
    0.1105              -19.72          5.967          59.89          33.52           3.25         -11.11         -79.15          68.72         -139.3          27.88          35.87
    0.1473              -19.73           5.97          59.89          33.53          3.249         -11.11         -79.15          68.72         -139.2          27.88          35.87
    0.1841              -19.73          5.972          59.89          33.54          3.248         -11.11         -79.15          68.72         -139.2          27.88          35.87
    0.2209              -19.74          5.974          59.88          33.54          3.248         -11.11         -79.15          68.73         -139.2          27.87          35.87
    0.2577              -19.74          5.977          59.88          33.55          3.247         -11.11         -79.15          68.73         -139.1          27.87          35.88
    0.2945              -19.75           5.98          59.88          33.56          3.246         -11.11         -79.15          68.73         -139.1          27.87          35.88
    0.3314              -19.76          5.983          59.88          33.57          3.246         -11.11         -79.15          68.74         -139.0          27.87          35.88
    0.3682              -19.76          5.986          59.88          33.58          3.245         -11.11         -79.14          68.74         -138.9          27.87          35.88
     0.405              -19.77           5.99          59.88          33.59          3.244         -11.11         -79.14          68.75         -138.9          27.87          35.89
    0.4418              -19.78          5.994          59.88           33.6          3.243         -11.11         -79.14          68.75         -138.8          27.87          35.89
    0.4786              -19.79          5.998          59.88          33.61          3.242          -11.1         -79.14          68.75         -138.7          27.87          35.89
    0.5154               -19.8          6.002          59.88          33.62          3.241          -11.1         -79.14          68.76         -138.6          27.87           35.9
    0.5523              -19.81          6.007          59.87          33.63           3.24          -11.1         -79.14          68.76         -138.5          27.87           35.9
    0.5891              -19.82          6.013          59.87          33.65          3.238          -11.1         -79.13          68.77         -138.4          27.87          35.91
    0.6259              -19.83          6.018          59.87          33.66          3.237          -11.1         -79.13          68.78         -138.3          27.87          35.91
    0.6627              -19.85          6.025          59.87          33.68          3.235          -11.1         -79.13          68.78         -138.2          27.86          35.92
    0.6995              -19.86          6.032          59.87           33.7          3.233          -11.1         -79.13          68.79         -138.1          27.86          35.92
    0.7364              -19.88          6.039          59.86          33.72          3.232         -11.09         -79.12           68.8         -137.9          27.86          35.93
    0.7732              -19.89          6.047          59.86          33.74          3.229         -11.09         -79.12          68.81         -137.8          27.86          35.94
      0.81              -19.91          6.057          59.86          33.77          3.227         -11.09         -79.12          68.82         -137.6          27.86          35.94
    0.8468              -19.93          6.067          59.85          33.79          3.225         -11.09         -79.11          68.83         -137.4          27.86          35.95
    0.8836              -19.96          6.078          59.85          33.82          3.222         -11.09         -79.11          68.85         -137.2          27.85          35.96
    0.9204              -19.98          6.091          59.85          33.86          3.219         -11.08         -79.11          68.86         -137.0          27.85          35.97
    0.9573              -20.01          6.105          59.84           33.9          3.215         -11.08          -79.1          68.88         -136.7          27.85          35.99
    0.9941              -20.05          6.121          59.84          33.94          3.211         -11.08         -79.09          68.89         -136.4          27.85           36.0
     1.031              -20.09          6.139          59.83          33.99          3.207         -11.07         -79.09          68.92         -136.1          27.84          36.01
     1.068              -20.13          6.159          59.82          34.04          3.201         -11.07         -79.08          68.94         -135.7          27.84          36.03
     1.105              -20.18          6.183          59.82          34.11          3.195         -11.06         -79.07          68.97         -135.3          27.83          36.05
     1.141              -20.24          6.209          59.81          34.18          3.189         -11.05         -79.06           69.0         -134.8          27.83          36.07
     1.178               -20.3           6.24           59.8          34.26          3.181         -11.05         -79.05          69.03         -134.2          27.82           36.1
     1.215              -20.38          6.276          59.79          34.36          3.172         -11.04         -79.04          69.07         -133.5          27.81          36.13
     1.252              -20.47          6.318          59.77          34.47          3.161         -11.03         -79.02          69.12         -132.7          27.81          36.17
     1.289              -20.57          6.368          59.76           34.6          3.149         -11.02          -79.0          69.18         -131.8           27.8          36.21
     1.325              -20.69          6.427          59.74          34.76          3.134          -11.0         -78.98          69.24         -130.7          27.78          36.26
     1.362              -20.84          6.497          59.71          34.95          3.116         -10.99         -78.95          69.33         -129.4          27.77          36.32
     1.399              -21.02          6.583          59.68          35.18          3.095         -10.97         -78.92          69.42         -127.8          27.75          36.39
     1.436              -21.24          6.687          59.65          35.46          3.069         -10.94         -78.88          69.54         -125.8          27.73          36.48
     1.473              -21.52          6.816          59.61          35.81          3.036         -10.91         -78.84          69.69         -123.4          27.71          36.59
      1.51              -21.85          6.976          59.56          36.24          2.996         -10.87         -78.78          69.87         -120.4          27.67          36.73
     1.546              -22.28          7.179          59.49          36.79          2.945         -10.82          -78.7           70.1         -116.7          27.63           36.9
     1.583              -22.82          7.436           59.4          37.48          2.881         -10.76         -78.61           70.4         -111.9          27.58          37.12
      1.62              -23.52          7.765           59.3          38.37          2.798         -10.69         -78.48          70.78         -105.7          27.52           37.4
     1.657              -24.41          8.187          59.16          39.51          2.692         -10.59         -78.33          71.26         -97.81          27.43          37.76
     1.694              -25.55          8.727          58.98          40.96          2.556         -10.46         -78.13          71.88         -87.73          27.32          38.22
      1.73              -26.98          9.405          58.76          42.79          2.386          -10.3         -77.87          72.65         -75.06          27.19           38.8
     1.767              -28.73          10.23          58.49          45.01          2.178          -10.1         -77.57           73.6         -59.62          27.02          39.51
     1.804              -30.75          11.19          58.17           47.6          1.937         -9.875         -77.21          74.69         -41.72          26.83          40.33
     1.841              -32.94          12.23          57.83          50.39          1.676         -9.629         -76.83          75.88         -22.34          26.62          41.21
     1.878              -35.13          13.26          57.49          53.19          1.415         -9.384         -76.44          77.07         -2.953          26.42           42.1
     1.915              -37.15          14.22          57.18          55.77          1.174         -9.157         -76.09          78.16          14.95          26.22          42.92
     1.951               -38.9          15.05           56.9           58.0         0.9667         -8.961         -75.78          79.11          30.39          26.06          43.62
